<svg xmlns="http://www.w3.org/2000/svg" xmlns:xlink="http://www.w3.org/1999/xlink" width="500" zoomAndPan="magnify" viewBox="0 0 375 374.999991" height="500" preserveAspectRatio="xMidYMid meet" version="1.2"><g id="75db0d5e83"><rect x="0" width="375" y="0" height="374.999991" style="fill:#ffffff;fill-opacity:1;stroke:none;"/><rect x="0" width="375" y="0" height="374.999991" style="fill:#ffffff;fill-opacity:1;stroke:none;"/><path style="fill:none;stroke-width:26;stroke-linecap:butt;stroke-linejoin:miter;stroke:#000000;stroke-opacity:1;stroke-miterlimit:4;" d="M -0.00000130658 12.998944 L 90.08011 12.998944 " transform="matrix(1.559419,0,0,1.559419,37.500002,78.748728)"/><path style="fill:none;stroke-width:26;stroke-linecap:butt;stroke-linejoin:miter;stroke:#000000;stroke-opacity:1;stroke-miterlimit:4;" d="M -0.000261089 13.000184 L 97.517533 13.000184 " transform="matrix(1.560773,0,0,1.560773,186.543376,78.748728)"/><path style="fill:none;stroke-width:26;stroke-linecap:butt;stroke-linejoin:miter;stroke:#000000;stroke-opacity:1;stroke-miterlimit:4;" d="M -0.000987602 13 L 66.517541 13 " transform="matrix(1.560773,0,0,1.560773,234.927323,180.018547)"/><path style="fill:none;stroke-width:26;stroke-linecap:butt;stroke-linejoin:miter;stroke:#000000;stroke-opacity:1;stroke-miterlimit:4;" d="M -0.000905644 13.001136 L 28.951097 13.001136 " transform="matrix(0,1.560773,-1.560773,0,338.737132,127.091257)"/><path style="fill:none;stroke-width:26;stroke-linecap:butt;stroke-linejoin:miter;stroke:#000000;stroke-opacity:1;stroke-miterlimit:4;" d="M -0.0012452 13.000056 L 108.422521 13.000056 " transform="matrix(0,1.5547,-1.5547,0,178.093997,127.02928)"/><path style="fill:none;stroke-width:26;stroke-linecap:butt;stroke-linejoin:miter;stroke:#000000;stroke-opacity:1;stroke-miterlimit:4;" d="M -0.0012452 12.998866 L 108.422521 12.998866 " transform="matrix(0,1.5547,-1.5547,0,227.123397,127.02928)"/></g></svg>